<svg xmlns="http://www.w3.org/2000/svg" width="20" height="19" viewBox="0 0 20 19">
    <g fill="#77A4B3">
        <path opacity=".5" d="M13.618 13.597h-.249v3.905H1.451V6.274h-.247c-.688 0-1.244.546-1.244 1.22v10.249c0 .674.555 1.22 1.242 1.22h.248v-.033a.93.93 0 0 0 .247.033h11.424a.865.865 0 0 0 .247-.033v.033h.249v.005a1.23 1.23 0 0 0 1.241-1.221v-2.929a1.23 1.23 0 0 0-1.24-1.221z"/>
        <path d="M19.365 4.718l-.024-.024h-.004L14.439.233a.924.924 0 0 0-1.229 0c-.337.312-.305.77-.305.77l.01 2.289c-2.408.008-8.581.888-8.581 9.691.083.805 1.029 1.079 1.091.606 0-5.07 4.959-6.105 7.481-6.307v2.785s-.016.441.308.77.888.312 1.229 0l4.898-4.461a1.159 1.159 0 0 0 .024-1.658z"/>
    </g>
</svg>
