<svg xmlns="http://www.w3.org/2000/svg" width="99" height="18" viewBox="0 0 99 18">
    <path fill="#77A4B3" d="M31.25 7.355S27.79-2.153 19.982.452c-3.498 1.17-5.22 5.653-9.26 6.193C6.317 7.237.946 2.5 0 .985c0 0 .653 1.11 1.697 2.634 5.126 7.977 8.435 13.042 13.948 13.68 6.914.8 10.583-5.9 11.512-8.58.77-2.224 2.256-2.14 3.208-1.804l.884.44zm15.38 4.515h1.305V5.398H35.428v6.472h1.308l.983 3.44h-3.687v1.612h15.3V15.31h-3.686l.982-3.44zm-8.987-1.61V7.025h8.08v3.233h-8.08zm5.796 5.05h-3.514l-.984-3.44h5.48l-.98 3.44h-.003zm5.805-13.054H34.117v1.63h15.128v-1.63zm5.68 8.758l-1.085.14V9.457h1.39v-1.56h-.73l.268-3.136h.31V3.2h-1.3V2.05h-1.62V3.2h-1.435v1.56h.284l.27 3.137h-.754v1.56h1.55v1.748c0 .05 0 .114-.003.186l-1.53.202.185 1.655 1.222-.244c-.143 1.203-.43 2.697-.99 3.632l1.603.693c.82-1.37 1.116-3.358 1.224-4.694l1.027-.205.12-1.416h-.007zM53.26 7.897h-.74l-.167-3.137h1.074l-.166 3.137zM65.65 4.76h.544V3.2h-1.53V2.047h-1.69v1.15h-1.61l-.996-1.218-4.953 1.044v.253h-.002v5.328c0 3.328-.058 5.21-1.348 8.333l1.35.386c1.384-3.35 1.416-5.31 1.416-8.72V4.17l.703-.108v11.325l-1.352.033.275 1.702 3.402-.54-.247-1.25-.836.02V3.873l.77-.116v4.85c0 1.582-.038 5.264 1.066 8.605l1.42-.29c-1.07-3.24-1.07-6.798-1.07-8.316V3.542l.347-.05v1.27h.577l.27 3.136h-.846v1.56h1.633v1.932H61.51v1.56h1.425v4.187h1.758V12.95h1.393v-1.56h-1.393V9.455h1.613v-1.56h-.932l.267-3.136h.005zm-1.51 3.137h-.744L63.23 4.76h1.073l-.165 3.137zm9.447-3.79h6.575V14.93c0 .5-.432.5-.63.5h-.79l.284 1.67h1.385c.415 0 1.676 0 1.676-1.533V2.502H73.59v1.605h-.005zm-5.862 13.2h1.922V5.338h-1.92v11.97h-.002zm4.836-12.7L70.92 1.658l-1.93.914 2 2.622 1.567-.59zm6.444 8.82s-.577.348-1.465.622c-.298.09-.547-.005-.547-.402v-2.165h1.672V6.956H76.77l1.19-1.837-1.332-.79-1.698 2.624h-1.524l.88-.574-.97-1.6-1.428.78 1.06 1.396h-1.955v4.528h1.343c.016 1.643-.232 2.563-1.75 3.42L71.59 16.4c2.074-1.232 2.525-2.798 2.59-4.915h1.19v2.207c-.013 1.837 1.256 2.442 2.226 1.996.465-.214 1.62-.65 1.62-.65l-.21-1.612h-.002zM76.71 10h-3.766v-1.55h3.766v1.55zm20.035-.816l1.636.262.387-2.173V5.702h-4.51V4.38h4.15V2.804h-4.15v-.887h-1.712v.888H88.36V4.38h4.187v1.322H88v1.573h9.093l-.348 1.91zm1.943 6.527l-4.198-2.595h4.176v-1.573h-3.77c.178-.797.205-1.44.205-1.736V8.03h-1.734l-.003 1.78c0 .365-.047 1-.257 1.734H91.52l.367-1.116-2.973-.975-.322 1.108 2.034.983H88.18v1.573h4.225c-.693 1.09-1.867 2.108-3.86 2.566l.36 1.616c2.277-.515 3.72-1.595 4.632-2.79l4.424 2.822.05.034.952-1.484-.273-.168h-.002zM86.753 6.225h-3.477v1.648h1.77v7.214l-.533.455.792 1.712 2.57-2.514v-2.074l-1.117.958V6.226h-.005zm.772-1.973l-2.64-2.232-1.27.89 2.37 2.656 1.544-1.314h-.005zm4.75 5.752l.493-1.484-2.973-.975-.322 1.108 2.807 1.352h-.005z"/>
</svg>
