<svg xmlns="http://www.w3.org/2000/svg" width="73" height="49.235" viewBox="0 0 73 49.235"><path fill="#ddd" d="M6.5 0l2.144 3.945 4.357.85-3.033 3.288.55 4.47-4.016-1.913-4.017 1.913.55-4.47L.002 4.795l4.358-.85L6.5 0M21.5 0l2.144 3.945 4.357.85-3.033 3.288.55 4.47-4.016-1.913-4.017 1.913.55-4.47-3.032-3.288 4.358-.85L21.5 0M36.5 0l2.144 3.945 4.357.85-3.033 3.288.55 4.47-4.016-1.913-4.017 1.913.55-4.47-3.032-3.288 4.358-.85L36.5 0M51.5 0l2.144 3.945 4.357.85-3.033 3.288.55 4.47-4.016-1.913-4.017 1.913.55-4.47-3.032-3.288 4.358-.85L51.5 0M66.5 0l2.144 3.945 4.357.85-3.033 3.288.55 4.47-4.016-1.913-4.017 1.913.55-4.47-3.032-3.288 4.358-.85L66.5 0"/><path fill="#FA595F" d="M6.5 16.917l2.144 3.945 4.357.85L9.968 25l.55 4.47-4.016-1.913-4.017 1.913.55-4.47L0 21.712l4.357-.85L6.5 16.917M21.5 16.917l2.144 3.945 4.357.85L24.968 25l.55 4.47-4.016-1.913-4.017 1.913.55-4.47L15 21.712l4.357-.85 2.144-3.945M36.5 16.917l2.144 3.945 4.357.85L39.968 25l.55 4.47-4.016-1.913-4.017 1.913.55-4.47-3.032-3.288 4.358-.85 2.143-3.945M51.5 16.917l2.144 3.945 4.357.85L54.968 25l.55 4.47-4.016-1.913-4.017 1.913.55-4.47-3.032-3.288 4.358-.85 2.143-3.945M66.5 16.917l2.144 3.945 4.357.85L69.968 25l.55 4.47-4.016-1.913-4.017 1.913.55-4.47L60 21.712l4.357-.85 2.144-3.945"/><path fill="#343535" d="M6.5 33.79l2.144 3.945 4.357.85-3.033 3.288.55 4.47-4.016-1.913-4.017 1.913.55-4.47L0 38.585l4.357-.85L6.5 33.79M21.5 33.79l2.144 3.945 4.357.85-3.033 3.288.55 4.47-4.016-1.913-4.017 1.913.55-4.47L15 38.585l4.357-.85L21.5 33.79M36.5 33.79l2.144 3.945 4.357.85-3.033 3.288.55 4.47-4.016-1.913-4.017 1.913.55-4.47-3.032-3.288 4.358-.85L36.5 33.79M51.5 33.79l2.144 3.945 4.357.85-3.033 3.288.55 4.47-4.016-1.913-4.017 1.913.55-4.47-3.032-3.288 4.358-.85L51.5 33.79M66.5 33.79l2.144 3.945 4.357.85-3.033 3.288.55 4.47-4.016-1.913-4.017 1.913.55-4.47L60 38.585l4.357-.85L66.5 33.79"/></svg>